<svg width="600" height="515" viewBox="0 0 600 515" xmlns="http://www.w3.org/2000/svg" style="background:#fff"><title>kuhn_game_tree</title><g fill="none" fill-rule="evenodd"><circle fill="#0579F5" cx="300" cy="31" r="10"/><circle fill="#0579F5" cx="300" cy="90" r="10"/><circle fill="#0579F5" cx="500" cy="90" r="10"/><circle fill="#0579F5" cx="100" cy="90" r="10"/><circle fill="#0579F5" cx="7.5" cy="7.5" r="2.5"/><path d="M50 160l-25 21.412M50 160l25 60M550 160l-24.865 21.762M550 160l24.876 61.799" stroke="#00B86B"/><text font-family="Lato-Medium, Lato" font-size="8" font-weight="400" fill="#00B86B"><tspan x="506.258" y="173">check</tspan></text><text font-family="Lato-Medium, Lato" font-size="8" font-weight="400" fill="#00B86B"><tspan x="563.702" y="173">bet</tspan></text><path d="M150 160l-25 221.647M150 160l25 180" stroke="#00B86B"/><text font-family="Lato-Medium, Lato" font-size="8" font-weight="400" fill="#00B86B"><tspan x="119.258" y="173">check</tspan></text><text font-family="Lato-Medium, Lato" font-size="8" font-weight="400" fill="#00B86B"><tspan x="160.702" y="173">bet</tspan></text><path d="M250.04 159.666l-25.172 103.02M250 160l25 140" stroke="#00B86B"/><text font-family="Lato-Medium, Lato" font-size="8" font-weight="400" fill="#00B86B"><tspan x="218.258" y="173">check</tspan></text><text font-family="Lato-Medium, Lato" font-size="8" font-weight="400" fill="#00B86B"><tspan x="263.702" y="173">bet</tspan></text><path d="M450 160l-25 101.612M450 160l25 140" stroke="#00B86B"/><text font-family="Lato-Medium, Lato" font-size="8" font-weight="400" fill="#00B86B"><tspan x="419.258" y="173">check</tspan></text><text font-family="Lato-Medium, Lato" font-size="8" font-weight="400" fill="#00B86B"><tspan x="464.702" y="173">bet</tspan></text><path d="M350 160l-25 221.649M350 160l25 180" stroke="#00B86B"/><text font-family="Lato-Medium, Lato" font-size="8" font-weight="400" fill="#00B86B"><tspan x="320.258" y="173">check</tspan></text><text font-family="Lato-Medium, Lato" font-size="8" font-weight="400" fill="#00B86B"><tspan x="361.702" y="173">bet</tspan></text><path fill="#8750E6" d="M24.923 180l11.923 20H13zM7.48 25l2.982 5H4.5zM74.923 220l11.923 20H63zM524.923 180l11.923 20H513zM574.923 220l11.923 20H563zM424.923 260l11.923 20H413zM474.923 300l11.923 20H463zM224.923 260l11.923 20H213zM274.923 300l11.923 20H263zM124.923 380l11.923 20H113zM174.923 340l11.923 20H163zM324.923 380l11.923 20H313zM374.923 340l11.923 20H363z"/><path d="M60.51 140.78h80.38" stroke="#00B86B" stroke-dasharray="4"/><path d="M5 48h5" stroke="#00B86B" stroke-dasharray="1"/><path d="M5 58h5" stroke="#8750E6" stroke-dasharray="1"/><path d="M60.51 159.78h80.38M49.455 450.5h77.436M49.455 469.5h77.436M249.455 450.5h77.436M249.455 469.5h77.436M449.455 450.5h77.436M449.455 469.5h77.436" stroke="#00B86B" stroke-dasharray="4"/><g stroke="#00B86B" stroke-dasharray="4"><path d="M459.51 140.78h80.38M459.51 159.78h80.38"/></g><path d="M262.51 159.78h80.38M262.51 140.78h80.38" stroke="#00B86B" stroke-dasharray="4"/><path d="M102.373 87.895l197.86-57.03M300.947 31.287V90.02M300.568 29.875l200.123 61.84" stroke="#0579F5"/><text font-family="Lato-Medium, Lato" font-size="8" font-weight="400" fill="#0579F5"><tspan x="163" y="60">p1 jack</tspan></text><text font-family="Lato-Medium, Lato" font-size="8" font-weight="400" fill="#0579F5"><tspan x="262" y="60">p1 queen</tspan></text><text font-family="Lato-Medium, Lato" font-size="8" font-weight="400" fill="#0579F5"><tspan x="405" y="60">p1 king</tspan></text><path d="M102.111 91.314l-51.728 56.8M101.25 92.164l49.523 59.356M302.111 91.314l-51.728 56.8M301.25 92.164l49.523 59.356" stroke="#0579F5"/><g stroke="#0579F5"><path d="M502.111 90.314l-51.728 56.8M501.25 91.164l49.523 59.356"/></g><path d="M25 200L12.982 420M25 200l13.639 252.03" stroke="#8750E6"/><path fill="#00B86B" d="M40 140h20v20H40zM5 15h5v5H5zM28 450h20v20H28zM140 140h20v20h-20zM240 140h20v20h-20zM340 140h20v20h-20zM440 140h20v20h-20zM540 140h20v20h-20z"/><text font-family="Lato-Medium, Lato" font-size="8" font-weight="400" fill="#0579F5"><tspan x="39" y="120">p2 queen</tspan></text><text font-family="Lato-Medium, Lato" font-size="8" font-weight="400" fill="#0579F5"><tspan x="130" y="120">p2 king</tspan></text><text font-family="Lato-Medium, Lato" font-size="8" font-weight="400" fill="#0579F5"><tspan x="245" y="120">p2 jack</tspan></text><text font-family="Lato-Medium, Lato" font-size="8" font-weight="400" fill="#0579F5"><tspan x="332" y="120">p2 king</tspan></text><text font-family="Lato-Medium, Lato" font-size="8" font-weight="400" fill="#0579F5"><tspan x="445" y="120">p2 jack</tspan></text><text font-family="Lato-Medium, Lato" font-size="8" font-weight="400" fill="#0579F5"><tspan x="530" y="120">p2 queen</tspan></text><path d="M20.719 199.285h515.013M25.645 180.75H524.98M69.719 239.285h515.013M74.645 220.75H573.98M221.516 279.621h212.779M225.166 260.621h200.205M271.516 319.621h212.779M275.166 300.621h200.205M135 399.621h180M125.91 380.621H325M185 359.621h180M176.91 340.621H376" stroke="#8750E6" stroke-dasharray="4"/><text font-family="Lato-Medium, Lato" font-size="8" font-weight="400" fill="#00B86B"><tspan x="5.258" y="173">check</tspan></text><text font-family="Lato-Medium, Lato" font-size="8" font-weight="400" fill="#00B86B"><tspan x="62.702" y="173">bet</tspan></text><text font-family="Lato-Medium, Lato" font-size="8" font-weight="400" fill="#8750E6"><tspan x="1.258" y="210">check</tspan></text><text font-family="Lato-Medium, Lato" font-size="8" font-weight="400" fill="#8750E6"><tspan x="57.672" y="250">fold</tspan></text><text font-family="Lato-Medium, Lato" font-size="8" font-weight="400" fill="#8750E6"><tspan x="29.702" y="210">bet</tspan></text><text font-family="Lato-Medium, Lato" font-size="8" font-weight="400" fill="#8750E6"><tspan x="80.676" y="250">call</tspan></text><path d="M75 240L63.035 420M75 240l13.122 180" stroke="#8750E6"/><path d="M40.467 459.833L27.583 490M40.467 459.833L48.33 490" stroke="#00B86B"/><path fill="#333" d="M87.858 418.071l7.071 7.071-7.07 7.071-7.072-7.07zM12.858 418.071l7.071 7.071-7.07 7.071-7.072-7.07zM7.571 34.035l3.536 3.536-3.536 3.536-3.535-3.536zM27.858 488.071l7.071 7.071-7.07 7.071-7.072-7.07zM47.858 488.071l7.071 7.071-7.07 7.071-7.072-7.07zM62.858 418.071l7.071 7.071-7.07 7.071-7.072-7.07z"/><text font-family="Lato-Medium, Lato" font-size="8" font-weight="400" fill="#333"><tspan x="7.692" y="440">-1</tspan></text><text font-family="Lato-Medium, Lato" font-size="8" font-weight="400" fill="#333"><tspan x="55.86" y="440">+1</tspan></text><text font-family="Lato-Medium, Lato" font-size="8" font-weight="400" fill="#333"><tspan x="82.692" y="440">-2</tspan></text><text font-family="Lato-Medium, Lato" font-size="8" font-weight="400" fill="#333"><tspan x="22.692" y="510">-1</tspan></text><text font-family="Lato-Medium, Lato" font-size="8" font-weight="400" fill="#333"><tspan x="42.692" y="510">-2</tspan></text><text font-family="Lato-Medium, Lato" font-size="8" font-weight="400" fill="#00B86B"><tspan x="12.672" y="483">fold</tspan></text><text font-family="Lato-Medium, Lato" font-size="8" font-weight="400" fill="#00B86B"><tspan x="50.676" y="483">call</tspan></text><path d="M125 400l-12.328 20M125 400l12.974 50" stroke="#8750E6"/><path fill="#00B86B" d="M128 450h20v20h-20z"/><text font-family="Lato-Medium, Lato" font-size="8" font-weight="400" fill="#8750E6"><tspan x="97.258" y="410">check</tspan></text><text font-family="Lato-Medium, Lato" font-size="8" font-weight="400" fill="#8750E6"><tspan x="153.672" y="370">fold</tspan></text><text font-family="Lato-Medium, Lato" font-size="8" font-weight="400" fill="#8750E6"><tspan x="130.702" y="410">bet</tspan></text><text font-family="Lato-Medium, Lato" font-size="8" font-weight="400" fill="#8750E6"><tspan x="182.676" y="370">call</tspan></text><path d="M175 360l-12.308 60M175 360l12.74 60" stroke="#8750E6"/><path d="M140.467 459.833L127.583 490M140.467 459.833L148.33 490" stroke="#00B86B"/><path fill="#333" d="M187.858 418.071l7.071 7.071-7.07 7.071-7.072-7.07zM112.858 418.071l7.071 7.071-7.07 7.071-7.072-7.07zM127.858 488.071l7.071 7.071-7.07 7.071-7.072-7.07zM147.858 488.071l7.071 7.071-7.07 7.071-7.072-7.07zM162.858 418.071l7.071 7.071-7.07 7.071-7.072-7.07z"/><text font-family="Lato-Medium, Lato" font-size="8" font-weight="400" fill="#333"><tspan x="107.692" y="440">-1</tspan></text><text font-family="Lato-Medium, Lato" font-size="8" font-weight="400" fill="#333"><tspan x="155.86" y="440">+1</tspan></text><text font-family="Lato-Medium, Lato" font-size="8" font-weight="400" fill="#333"><tspan x="182.692" y="440">-2</tspan></text><text font-family="Lato-Medium, Lato" font-size="8" font-weight="400" fill="#333"><tspan x="122.692" y="510">-1</tspan></text><text font-family="Lato-Medium, Lato" font-size="8" font-weight="400" fill="#333"><tspan x="142.692" y="510">-2</tspan></text><text font-family="Lato-Medium, Lato" font-size="8" font-weight="400" fill="#00B86B"><tspan x="112.672" y="483">fold</tspan></text><text font-family="Lato-Medium, Lato" font-size="8" font-weight="400" fill="#00B86B"><tspan x="150.676" y="483">call</tspan></text><path d="M325 400l-12.36 20M325 400l12.742 50" stroke="#8750E6"/><path fill="#00B86B" d="M328 450h20v20h-20z"/><text font-family="Lato-Medium, Lato" font-size="8" font-weight="400" fill="#8750E6"><tspan x="297.258" y="410">check</tspan></text><text font-family="Lato-Medium, Lato" font-size="8" font-weight="400" fill="#8750E6"><tspan x="353.672" y="370">fold</tspan></text><text font-family="Lato-Medium, Lato" font-size="8" font-weight="400" fill="#8750E6"><tspan x="330.702" y="410">bet</tspan></text><text font-family="Lato-Medium, Lato" font-size="8" font-weight="400" fill="#8750E6"><tspan x="382.676" y="370">call</tspan></text><path d="M375 360l-12.223 60M375 360l12.943 60" stroke="#8750E6"/><path d="M340.467 459.833L327.583 490M340.467 459.833L348.33 490" stroke="#00B86B"/><path fill="#333" d="M387.858 418.071l7.071 7.071-7.07 7.071-7.072-7.07zM312.858 418.071l7.071 7.071-7.07 7.071-7.072-7.07zM327.858 488.071l7.071 7.071-7.07 7.071-7.072-7.07zM347.858 488.071l7.071 7.071-7.07 7.071-7.072-7.07zM362.858 418.071l7.071 7.071-7.07 7.071-7.072-7.07z"/><text font-family="Lato-Medium, Lato" font-size="8" font-weight="400" fill="#333"><tspan x="307.692" y="440">-1</tspan></text><text font-family="Lato-Medium, Lato" font-size="8" font-weight="400" fill="#333"><tspan x="355.86" y="440">+1</tspan></text><text font-family="Lato-Medium, Lato" font-size="8" font-weight="400" fill="#333"><tspan x="382.692" y="440">-2</tspan></text><text font-family="Lato-Medium, Lato" font-size="8" font-weight="400" fill="#333"><tspan x="322.692" y="510">-1</tspan></text><text font-family="Lato-Medium, Lato" font-size="8" font-weight="400" fill="#333"><tspan x="342.692" y="510">-2</tspan></text><text font-family="Lato-Medium, Lato" font-size="8" font-weight="400" fill="#00B86B"><tspan x="312.672" y="483">fold</tspan></text><text font-family="Lato-Medium, Lato" font-size="8" font-weight="400" fill="#00B86B"><tspan x="350.676" y="483">call</tspan></text><path d="M225 280l-12.002 140M225 280l12.638 170" stroke="#8750E6"/><path fill="#00B86B" d="M228 450h20v20h-20z"/><text font-family="Lato-Medium, Lato" font-size="8" font-weight="400" fill="#8750E6"><tspan x="200.258" y="290">check</tspan></text><text font-family="Lato-Medium, Lato" font-size="8" font-weight="400" fill="#8750E6"><tspan x="256.672" y="330">fold</tspan></text><text font-family="Lato-Medium, Lato" font-size="8" font-weight="400" fill="#8750E6"><tspan x="229.702" y="290">bet</tspan></text><text font-family="Lato-Medium, Lato" font-size="8" font-weight="400" fill="#8750E6"><tspan x="280.676" y="330">call</tspan></text><path d="M275 320l-11.965 100M275 320l13.122 100" stroke="#8750E6"/><path d="M240.467 459.833L227.583 490M240.467 459.833L248.33 490" stroke="#00B86B"/><path fill="#333" d="M287.858 418.071l7.071 7.071-7.07 7.071-7.072-7.07zM212.858 418.071l7.071 7.071-7.07 7.071-7.072-7.07zM227.858 488.071l7.071 7.071-7.07 7.071-7.072-7.07zM247.858 488.071l7.071 7.071-7.07 7.071-7.072-7.07zM262.858 418.071l7.071 7.071-7.07 7.071-7.072-7.07z"/><text font-family="Lato-Medium, Lato" font-size="8" font-weight="400" fill="#333"><tspan x="205.86" y="440">+1</tspan></text><text font-family="Lato-Medium, Lato" font-size="8" font-weight="400" fill="#333"><tspan x="255.86" y="440">+1</tspan></text><text font-family="Lato-Medium, Lato" font-size="8" font-weight="400" fill="#333"><tspan x="281.86" y="440">+2</tspan></text><text font-family="Lato-Medium, Lato" font-size="8" font-weight="400" fill="#333"><tspan x="222.692" y="510">-1</tspan></text><text font-family="Lato-Medium, Lato" font-size="8" font-weight="400" fill="#333"><tspan x="241.86" y="510">+2</tspan></text><text font-family="Lato-Medium, Lato" font-size="8" font-weight="400" fill="#00B86B"><tspan x="212.672" y="483">fold</tspan></text><text font-family="Lato-Medium, Lato" font-size="8" font-weight="400" fill="#00B86B"><tspan x="250.676" y="483">call</tspan></text><path d="M425 280l-12.402 140M425 280l12.916 170C429.275 336.38 424.97 279.713 425 280z" stroke="#8750E6"/><path fill="#00B86B" d="M428 450h20v20h-20z"/><text font-family="Lato-Medium, Lato" font-size="8" font-weight="400" fill="#8750E6"><tspan x="400.258" y="290">check</tspan></text><text font-family="Lato-Medium, Lato" font-size="8" font-weight="400" fill="#8750E6"><tspan x="456.672" y="330">fold</tspan></text><text font-family="Lato-Medium, Lato" font-size="8" font-weight="400" fill="#8750E6"><tspan x="429.702" y="290">bet</tspan></text><text font-family="Lato-Medium, Lato" font-size="8" font-weight="400" fill="#8750E6"><tspan x="480.676" y="330">call</tspan></text><path d="M475 320l-11.965 100M475 320l13.122 100" stroke="#8750E6"/><path d="M440.467 459.833L427.583 490M440.467 459.833L448.33 490" stroke="#00B86B"/><path fill="#333" d="M487.858 418.071l7.071 7.071-7.07 7.071-7.072-7.07zM412.858 418.071l7.071 7.071-7.07 7.071-7.072-7.07zM427.858 488.071l7.071 7.071-7.07 7.071-7.072-7.07zM447.858 488.071l7.071 7.071-7.07 7.071-7.072-7.07zM462.858 418.071l7.071 7.071-7.07 7.071-7.072-7.07z"/><text font-family="Lato-Medium, Lato" font-size="8" font-weight="400" fill="#333"><tspan x="405.86" y="440">+1</tspan></text><text font-family="Lato-Medium, Lato" font-size="8" font-weight="400" fill="#333"><tspan x="455.86" y="440">+1</tspan></text><text font-family="Lato-Medium, Lato" font-size="8" font-weight="400" fill="#333"><tspan x="481.86" y="440">+2</tspan></text><text font-family="Lato-Medium, Lato" font-size="8" font-weight="400" fill="#333"><tspan x="422.692" y="510">-1</tspan></text><text font-family="Lato-Medium, Lato" font-size="8" font-weight="400" fill="#333"><tspan x="441.86" y="510">+2</tspan></text><text font-family="Lato-Medium, Lato" font-size="8" font-weight="400" fill="#00B86B"><tspan x="412.672" y="483">fold</tspan></text><text font-family="Lato-Medium, Lato" font-size="8" font-weight="400" fill="#00B86B"><tspan x="450.676" y="483">call</tspan></text><path d="M525 200l-12.016 220M525 200l12.606 250" stroke="#8750E6"/><path fill="#00B86B" d="M528 450h20v20h-20z"/><text font-family="Lato-Medium, Lato" font-size="8" font-weight="400" fill="#8750E6"><tspan x="501.258" y="210">check</tspan></text><text font-family="Lato-Medium, Lato" font-size="8" font-weight="400" fill="#8750E6"><tspan x="557.672" y="250">fold</tspan></text><text font-family="Lato-Medium, Lato" font-size="8" font-weight="400" fill="#8750E6"><tspan x="529.702" y="210">bet</tspan></text><text font-family="Lato-Medium, Lato" font-size="8" font-weight="400" fill="#8750E6"><tspan x="580.676" y="250">call</tspan></text><path d="M575 240l-11.965 180M575 240l13.122 180" stroke="#8750E6"/><path d="M540.467 459.833L527.583 490M540.467 459.833L548.33 490" stroke="#00B86B"/><path fill="#333" d="M587.858 418.071l7.071 7.071-7.07 7.071-7.072-7.07zM512.858 418.071l7.071 7.071-7.07 7.071-7.072-7.07zM527.858 488.071l7.071 7.071-7.07 7.071-7.072-7.07zM547.858 488.071l7.071 7.071-7.07 7.071-7.072-7.07zM562.858 418.071l7.071 7.071-7.07 7.071-7.072-7.07z"/><text font-family="Lato-Medium, Lato" font-size="8" font-weight="400" fill="#333"><tspan x="505.86" y="440">+1</tspan></text><text font-family="Lato-Medium, Lato" font-size="8" font-weight="400" fill="#333"><tspan x="555.86" y="440">+1</tspan></text><text font-family="Lato-Medium, Lato" font-size="8" font-weight="400" fill="#333"><tspan x="581.86" y="440">+2</tspan></text><text font-family="Lato-Medium, Lato" font-size="8" font-weight="400" fill="#333"><tspan x="522.692" y="510">-1</tspan></text><text font-family="Lato-Medium, Lato" font-size="8" font-weight="400" fill="#333"><tspan x="541.86" y="510">+2</tspan></text><text font-family="Lato-Medium, Lato" font-size="8" font-weight="400" fill="#00B86B"><tspan x="512.672" y="483">fold</tspan></text><text font-family="Lato-Medium, Lato" font-size="8" font-weight="400" fill="#00B86B"><tspan x="550.676" y="483">call</tspan></text><text font-family="Lato-Medium, Lato" font-size="8" font-weight="400" fill="#333"><tspan x="15" y="10">chance node</tspan></text><text font-family="Lato-Medium, Lato" font-size="8" font-weight="400" fill="#333"><tspan x="15" y="20">player one node</tspan></text><text font-family="Lato-Medium, Lato" font-size="8" font-weight="400" fill="#333"><tspan x="15" y="50">player one information set</tspan></text><text font-family="Lato-Medium, Lato" font-size="8" font-weight="400" fill="#333"><tspan x="15" y="60">player two information set</tspan></text><text font-family="Lato-Medium, Lato" font-size="8" font-weight="400" fill="#333"><tspan x="15" y="30">player two node</tspan></text><text font-family="Lato-Medium, Lato" font-size="8" font-weight="400" fill="#333"><tspan x="15" y="40">terminal node</tspan></text></g></svg>